<svg id="visual" viewBox="0 0 900 600" width="900" height="600" xmlns="http://www.w3.org/2000/svg" xmlns:xlink="http://www.w3.org/1999/xlink" version="1.1"><rect x="0" y="0" width="900" height="600" fill="#FFFFFF"></rect><path d="M0 376L21.5 382.2C43 388.3 86 400.7 128.8 396.5C171.7 392.3 214.3 371.7 257.2 368.7C300 365.7 343 380.3 385.8 394.8C428.7 409.3 471.3 423.7 514.2 421.8C557 420 600 402 642.8 397.8C685.7 393.7 728.3 403.3 771.2 398.5C814 393.7 857 374.3 878.5 364.7L900 355L900 601L878.5 601C857 601 814 601 771.2 601C728.3 601 685.7 601 642.8 601C600 601 557 601 514.2 601C471.3 601 428.7 601 385.8 601C343 601 300 601 257.2 601C214.3 601 171.7 601 128.8 601C86 601 43 601 21.5 601L0 601Z" fill="#c62368"></path><path d="M0 409L21.5 410.5C43 412 86 415 128.8 423.8C171.7 432.7 214.3 447.3 257.2 450.7C300 454 343 446 385.8 437.5C428.7 429 471.3 420 514.2 414C557 408 600 405 642.8 416.2C685.7 427.3 728.3 452.7 771.2 464.5C814 476.3 857 474.7 878.5 473.8L900 473L900 601L878.5 601C857 601 814 601 771.2 601C728.3 601 685.7 601 642.8 601C600 601 557 601 514.2 601C471.3 601 428.7 601 385.8 601C343 601 300 601 257.2 601C214.3 601 171.7 601 128.8 601C86 601 43 601 21.5 601L0 601Z" fill="#d53867"></path><path d="M0 479L21.5 478.3C43 477.7 86 476.3 128.8 474.7C171.7 473 214.3 471 257.2 473.7C300 476.3 343 483.7 385.8 479.5C428.7 475.3 471.3 459.7 514.2 451.7C557 443.7 600 443.3 642.8 446.7C685.7 450 728.3 457 771.2 464.3C814 471.7 857 479.3 878.5 483.2L900 487L900 601L878.5 601C857 601 814 601 771.2 601C728.3 601 685.7 601 642.8 601C600 601 557 601 514.2 601C471.3 601 428.7 601 385.8 601C343 601 300 601 257.2 601C214.3 601 171.7 601 128.8 601C86 601 43 601 21.5 601L0 601Z" fill="#e34c67"></path><path d="M0 515L21.5 515.5C43 516 86 517 128.8 512.8C171.7 508.7 214.3 499.3 257.2 495.5C300 491.7 343 493.3 385.8 496.3C428.7 499.3 471.3 503.7 514.2 503.3C557 503 600 498 642.8 496.5C685.7 495 728.3 497 771.2 504.5C814 512 857 525 878.5 531.5L900 538L900 601L878.5 601C857 601 814 601 771.2 601C728.3 601 685.7 601 642.8 601C600 601 557 601 514.2 601C471.3 601 428.7 601 385.8 601C343 601 300 601 257.2 601C214.3 601 171.7 601 128.8 601C86 601 43 601 21.5 601L0 601Z" fill="#ef5f67"></path><path d="M0 556L21.5 552.2C43 548.3 86 540.7 128.8 537.3C171.7 534 214.3 535 257.2 536.2C300 537.3 343 538.7 385.8 542.3C428.7 546 471.3 552 514.2 549.8C557 547.7 600 537.3 642.8 539.5C685.7 541.7 728.3 556.3 771.2 557.2C814 558 857 545 878.5 538.5L900 532L900 601L878.5 601C857 601 814 601 771.2 601C728.3 601 685.7 601 642.8 601C600 601 557 601 514.2 601C471.3 601 428.7 601 385.8 601C343 601 300 601 257.2 601C214.3 601 171.7 601 128.8 601C86 601 43 601 21.5 601L0 601Z" fill="#fa7268"></path></svg>